<svg xmlns="http://www.w3.org/2000/svg" viewBox="0 0 180 180">
  <rect width="180" height="180" rx="36" fill="#0d9488"/>
  <g fill="white" transform="scale(0.35) translate(10, 10)">
    <!-- Document -->
    <path d="M160 80h128l80 80v272a32 32 0 0 1-32 32H160a32 32 0 0 1-32-32V112a32 32 0 0 1 32-32z"/>
    <path d="M288 80v80h80" fill="none" stroke="white" stroke-width="16"/>
    <!-- Lines -->
    <rect x="176" y="200" width="144" height="16" rx="8" fill="#0d9488"/>
    <rect x="176" y="240" width="120" height="16" rx="8" fill="#0d9488"/>
    <rect x="176" y="280" width="100" height="16" rx="8" fill="#0d9488"/>
    <!-- Arrow -->
    <path d="M340 320l60 60m0 0l-24-8m24 8l-8-24" fill="none" stroke="white" stroke-width="24" stroke-linecap="round"/>
    <!-- Person -->
    <circle cx="420" cy="400" r="32"/>
    <circle cx="420" cy="370" r="20"/>
  </g>
</svg>
